<svg xmlns="http://www.w3.org/2000/svg" viewBox="0 0 187 66"><defs><style>.a{fill:#fff;}.b{fill:#36b3c9;}.c{fill:none;stroke:#36b3c9;stroke-miterlimit:10;stroke-width:4px;}.d{fill:#ff922e;}</style></defs><title>logo7</title><rect class="a" width="187" height="66"/><path class="a" d="M10.6719,62.1787l-.2022-.0576c-7.3886-2.1108-7.5361-9.9956-6.581-13.87L4.17,47.11H14.3516V3.3765H55.126L54.98,50.46c0,9.2056-6.7041,11.5464-6.9893,11.6412l-.2314.0771Z"/><path class="b" d="M53.6213,4.8765l-.142,45.579c0,8.2355-5.9636,10.2233-5.9636,10.2233H10.8821C2.9307,58.407,5.3445,48.61,5.3445,48.61H15.8518V4.8765H53.6213m3.0093-3H12.8518V45.61H2.9939L2.4316,47.892c-1.0742,4.36-.8626,13.246,7.6264,15.6714l.404.1154h37.54l.4619-.1539c.3272-.1091,8.0149-2.79,8.0149-13.0694l.142-45.57.0093-3.0094Z"/><path class="c" d="M5,47.6l31.5913-.05S36.2675,61.2961,44,63"/><path class="b" d="M55.4642,51.3666V48.2675c3.0644-.5452,5.1425-2.8605,5.1425-10.2156V22.6961h2.9964v15.56C63.6031,47.0079,60.64,50.8561,55.4642,51.3666Zm20.0234-.2719H71.1968V22.6961h2.9965V48.0636h1.5314c4.7,0,7.4925-3.5749,7.4925-9.773V30.8682h2.9964v7.3876C86.2136,47.0426,82.2627,51.0947,75.4876,51.0947Z"/><path class="b" d="M117.9232,30.9694c-.0347,1.533-.0347,1.1584-.0679,2.0435-.5452,11.7477-7.3219,18.0818-19.24,18.0818H90.205V48.0969h8.5467c10.59,0,15.7326-5.89,16.0725-14.9814.0347-1.0557.0347-.6131.0679-2.4179.1027-4.0189,1.7715-6.6407,4.9039-7.0153v3.1338C118.4337,27.0547,117.9912,28.9275,117.9232,30.9694Zm-26.9359-4.12V24.0569h13.6213v2.7925Zm0,9.8077V33.8646h13.6213v2.7925Z"/><path class="b" d="M124.5032,38.5624V35.2949H151.03v3.2675Z"/><path class="b" d="M170.2751,40.2993c-4.6305,0-8.444-1.3276-10.8287-3.4035V51.0947h-3.0976V22.6961h3.0976v8.5467c0,3.61,5.5171,6.0275,10.8287,6.0275h10.2836v3.029Z"/><path class="b" d="M53.6538,50.91c-3.1683,0-5.185-1.4819-6.1724-4.7323L40.9806,25.1927c-1.1115-3.5388-2.9639-4.8966-5.7617-4.8966H29.87c-2.4693,0-4.1557.9454-4.9788,4.402L22.2154,43.915h-3.703l2.9219-20.2864c.699-4.8966,3.8271-6.8713,7.9006-6.8713H35.343c4.9386,0,7.53,2.3452,8.888,6.7892l6.5428,21.15c.6169,1.9747,1.4819,2.6335,3.1281,2.6335h1.5623V50.91Z"/><rect class="d" x="59.7042" y="4.4713" width="122.2958" height="16.1655"/><path class="a" d="M70.2608,13.032A4.5085,4.5085,0,0,1,65.47,16.7209H63.5286V8.5724h.8585v7.27h1.1908c2.42,0,3.4148-1.3073,3.9811-3.2877a1.9636,1.9636,0,0,1,1.9128-1.6693v.9082C70.8271,11.7935,70.4662,12.2709,70.2608,13.032Z"/><path class="a" d="M64.3871,8.5724h-.8585v8.1485H65.47a4.5085,4.5085,0,0,0,4.7908-3.6889c.2054-.7611.5663-1.2385,1.2109-1.2385v-.9082a1.9637,1.9637,0,0,0-1.9127,1.6693c-.5663,1.98-1.5613,3.2877-3.9811,3.2877H64.3871v-7.27Z"/><path class="a" d="M80.4946,10.9446c-.0085.4382-.0085.3313-.0191.5853-.1567,3.3661-2.098,5.1815-5.5128,5.1815H72.5514v-.8585h2.45c3.0358,0,4.5092-1.6883,4.6066-4.2944.01-.3017.01-.1757.0191-.6923.03-1.1516.5081-1.9032,1.4057-2.01v.8976C80.6417,9.8215,80.5147,10.3581,80.4946,10.9446ZM72.7758,9.7633v-.8H76.68v.8Zm0,2.81v-.8H76.68v.8Z"/><path class="a" d="M81.0323,8.8561c-.8977.1069-1.3761.8585-1.4057,2.01-.01.5166-.01.3906-.0191.6923-.0974,2.6061-1.5708,4.2944-4.6066,4.2944H72.5515v.8585h2.4113c3.4147,0,5.356-1.8154,5.5127-5.1815.0106-.254.0106-.1471.0191-.5853.02-.5865.1471-1.1231.5377-1.1909V8.8561ZM76.68,8.963H72.7759v.8H76.68v-.8Zm0,2.81H72.7759v.8H76.68v-.8Z"/><path class="a" d="M82.18,13.12V12.183H89.782V13.12Z"/><polygon class="a" points="89.782 12.183 82.18 12.183 82.18 13.12 89.782 13.12 89.782 12.183 89.782 12.183"/><path class="a" d="M92.7773,11.6426v-.044c.01.024.02.0474.0313.0708Z"/><path class="a" d="M93.165,8.5724h-.8881v8.139h.8881v-4.069a4.7375,4.7375,0,0,0,3.1036.9749h2.9469v-.868H96.2686c-1.5222,0-3.1036-.6922-3.1036-1.7275V8.5724Z"/><path class="a" d="M105.429,16.79c-2.6548,0-3.9335-1.2491-3.9335-3.5429a3.8936,3.8936,0,0,1,2.0006-3.3078h-3.0538V9.071h6.421v.868h-.9474a3.4752,3.4752,0,0,0-3.5418,3.2687c0,1.8153,1.0437,2.7034,3.0252,2.7034h2.6738V16.79Zm1.863-7.9241V8.3194h1.9519v.5462Zm0,.9855V9.3144h1.9519v.5367Z"/><path class="a" d="M109.2438,8.3194h-1.9519v.5462h1.9519V8.3194Zm-2.38.7516h-6.421v.868h3.0538a3.8936,3.8936,0,0,0-2.0006,3.3078c0,2.2938,1.2787,3.5429,3.9335,3.5429h2.6441v-.8786h-2.6737c-1.9816,0-3.0253-.8881-3.0253-2.7034a3.4752,3.4752,0,0,1,3.5418-3.2687h.9474V9.071Zm2.38.2434h-1.9519v.5367h1.9519V9.3144Z"/><path class="a" d="M114.9006,14.155v1.5317c0,.8-.234,1.2491-1.2385,1.2491h-1.7963v-.82h1.5719c.507,0,.5949-.1852.5949-.6044V14.155h-3.962v-.7907h3.962V11.8422h-3.6889v-.7907h3.6889V9.451c-1.0151.0487-2.1467.0487-3.4645.0487V8.72a34.1633,34.1633,0,0,0,7.797-.5663v.8a23.0686,23.0686,0,0,1-3.4645.4583v1.64h3.6984v.7907h-3.6984v1.5221h3.962v.7907Z"/><path class="a" d="M118.3651,8.1533a34.1637,34.1637,0,0,1-7.797.5663V9.5c1.3178,0,2.4494,0,3.4645-.0487v1.6005h-3.689v.7907h3.689v1.5221h-3.962v.7907h3.962v1.356c0,.4192-.0879.6044-.5949.6044h-1.5719v.82h1.7963c1.0045,0,1.2385-.4489,1.2385-1.2491V14.155h3.962v-.7907h-3.962V11.8422h3.6984v-.7907h-3.6984v-1.64a23.0815,23.0815,0,0,0,3.4645-.4583v-.8Z"/><path class="a" d="M122.6256,9.578v.83h1.5137v4.0689h-1.5137v.849h1.5719v.7028h-1.5719v.9072h-.7515v-.9072h-1.6577v-.7028h1.6577v-.849H120.372V10.4079h1.5021v-.83h-1.6577V8.8847h1.6577V8.1533h.7515v.7314h1.6111V9.578Zm-.6827,1.5126h-.9463v1.0533h.9463Zm0,1.6492h-.9463v1.0437h.9463Zm1.58-1.6492h-.9558v1.0533h.9558Zm0,1.6492h-.9558v1.0437h.9558Zm.8,4.0785v-.7611h1.9223V14.75h-1.6683v-.742h1.6683v-1.18h.8489v1.18h1.6407v.742h-1.6407v1.3073h1.9138v.7611Zm2.43-4.937a5.4357,5.4357,0,0,1-2.1763.79v-.79a4.4739,4.4739,0,0,0,1.5518-.4879,5.5875,5.5875,0,0,1-1.2977-1.8545h.868a4.3949,4.3949,0,0,0,1.0542,1.4152A3.9943,3.9943,0,0,0,127.9055,9.09h-3.328V8.329h4.1769v.7123a4.6924,4.6924,0,0,1-1.3655,2.3521,4.0959,4.0959,0,0,0,1.62.4774v.8A4.7926,4.7926,0,0,1,126.7538,11.8813Z"/><path class="a" d="M122.6256,8.1533h-.7515v.7314h-1.6577V9.578h1.6577v.83h-1.502v4.0689h1.502v.849h-1.6577v.7028h1.6577v.9072h.7515v-.9072h1.5719v-.7028h-1.5719v-.849h1.5137V10.4079h-1.5137v-.83h1.6111V8.8847h-1.6111V8.1533Zm-.0582,3.9906V11.0906h.9559v1.0533Zm-1.5708,0V11.0906h.9463v1.0533Zm1.5708,1.64V12.74h.9559v1.0437Zm-1.5708,0V12.74h.9463v1.0437Zm7.7579-5.4545h-4.177V9.09h3.328a3.9943,3.9943,0,0,1-1.1517,1.8641A4.3942,4.3942,0,0,1,125.7,9.5388h-.8681a5.59,5.59,0,0,0,1.2978,1.8546,4.4739,4.4739,0,0,1-1.5518.4879v.79a5.4363,5.4363,0,0,0,2.1763-.79,4.7915,4.7915,0,0,0,2.2547.79v-.8a4.0955,4.0955,0,0,1-1.62-.4774,4.694,4.694,0,0,0,1.3655-2.352V8.329Zm-1.66,4.4987h-.849v1.18h-1.6682v.742h1.6682v1.3073h-1.9222v.7611h4.685v-.7611h-1.9138V14.75h1.6407v-.742h-1.6407v-1.18Z"/><path class="a" d="M130.6534,16.8384V8.456h.8691v8.3824Zm3.7673-.2932c-1.3761,0-2.0588-.7516-2.0588-1.7371,0-1.0246.634-1.58,2.83-2.6145,2.4685-1.1612,2.8485-1.5232,2.8485-1.9233,0-.2826-.1461-.507-.7124-.507H132.43v-.849h4.9666c1.1135,0,1.5433.5663,1.5433,1.2787,0,.8976-.6933,1.3761-3.2793,2.605-2.03.9569-2.42,1.3465-2.42,1.971,0,.5472.4287.9368,1.2194.9368h4.5368v.8394Z"/><path class="a" d="M131.5225,8.456h-.8691v8.3824h.8691V8.456Zm5.8736.4583H132.43v.849h4.8988c.5664,0,.7124.2244.7124.507,0,.4-.38.7621-2.8485,1.9233-2.1964,1.0342-2.83,1.59-2.83,2.6145,0,.9855.6827,1.7371,2.0588,1.7371h4.5759v-.8394H134.46c-.7907,0-1.2194-.39-1.2194-.9368,0-.6245.3895-1.0141,2.42-1.971,2.5859-1.2289,3.2793-1.7074,3.2793-2.605,0-.7124-.43-1.2787-1.5434-1.2787Z"/><path class="a" d="M141.4439,11.6072h.234v5.3286h-.7907V12.7006a3.4231,3.4231,0,0,1-.7611.7421V12.2709c.7229-.7018.9177-2.098.9177-4.1176h.83A10.8365,10.8365,0,0,1,141.4439,11.6072Zm4.5083,5.2111a3.737,3.737,0,0,1-2.6347-1.0734A3.4294,3.4294,0,0,1,142,16.9358v-.8585a2.5278,2.5278,0,0,0,.869-.86,4.2753,4.2753,0,0,1-.7621-2.117h.6054a3.6154,3.6154,0,0,0,.4594,1.4829,7.3546,7.3546,0,0,0,.38-2.371h-1.2977v-.7315L143.3662,9.09h-1.1421V8.329h1.9233v.7028l-1.1422,2.41h1.1909v.7018A7.2722,7.2722,0,0,1,143.63,15.18a3.14,3.14,0,0,0,2.2832.9262h2.9956v.7124Zm.9558-1.62v.6341h-.7029v-.6341h-1.8333v-.6541h1.8333v-.8585h-1.5316v-.6436h1.5316v-.869h-1.5316V11.53h1.5316v-.869h-1.8439v-.6436h1.8439v-.869h-1.5517V8.4952h1.5517V8.1533h.7029v.3419h1.737v1.5221h.2636v.6436h-.2636v1.5126h-1.737v.869h1.737v.6436h-1.737v.8585h2.0006v.6541Zm1.1326-6.05H146.908v.869h1.1326Zm0,1.5126H146.908v.869h1.1326Z"/><path class="a" d="M146.908,8.1533h-.7029v.3419h-1.5518v.6531h1.5518v.869h-1.8439v.6436h1.8439v.869h-1.5316v.6436h1.5316v.869h-1.5316v.6436h1.5316v.8585h-1.8333v.6541h1.8333v.6341h.7029v-.6341h2.0006v-.6541H146.908v-.8585h1.737v-.6436h-1.737v-.869h1.737V10.6609h.2636v-.6436h-.2636V8.4952h-1.737V8.1533Zm0,1.864v-.869h1.1326v.869Zm0,1.5126v-.869h1.1326v.869Zm-5.0343-3.3766h-.83c0,2.02-.1948,3.4158-.9177,4.1176v1.1718a3.4231,3.4231,0,0,0,.7611-.7421v4.2352h.7907V11.6072h-.2339a10.84,10.84,0,0,0,.43-3.4539Zm2.2736.1757H142.224V9.09h1.1422l-1.1125,2.3912v.7315h1.2977a7.3518,7.3518,0,0,1-.38,2.371,3.6154,3.6154,0,0,1-.4594-1.4829h-.6054a4.2772,4.2772,0,0,0,.7621,2.117,2.5272,2.5272,0,0,1-.8691.86v.8585a3.4283,3.4283,0,0,0,1.3179-1.1909,3.7367,3.7367,0,0,0,2.6346,1.0734h2.9565v-.7124H145.913A3.1393,3.1393,0,0,1,143.63,15.18a7.2724,7.2724,0,0,0,.5662-3.0358v-.7018h-1.1908l1.1421-2.41V8.329Z"/><path class="a" d="M158.196,12.0952v1.376h-2.8209v2.4494a.936.936,0,0,1-1.0533,1.0152H153.6v-.7219a6.3808,6.3808,0,0,1-2.3033.7219v-.6934a5.2884,5.2884,0,0,0,2.732-1.0828v.761a2.2977,2.2977,0,0,1-.35.2446h.4678a.3679.3679,0,0,0,.39-.42V13.4712h-2.858v-.6245h2.858v-.7515h-3.3174V11.5h3.3174v-.7611h-2.858v-.615h2.858V9.4319h-3.4445v3.7567c0,2.1954-.3027,3.0644-1.2194,3.7662V15.5692c.3409-.4287.3906-.9463.3906-2.41V8.69h3.8731V8.1533h.8786V8.69h3.65v.742h-3.2888v.6923h2.8209V11.5h.4679v.5949ZM151.6184,14.34v-.615l2.41.5663v.634Zm5.7964-3.6011h-2.04v.78h2.04Zm0,1.3464h-2.04v.7611h2.04Zm-1.737,1.7953h.7029a4.0067,4.0067,0,0,0,.3514.869l1.9318-1.0341v.6827l-1.5709.8585a3.1946,3.1946,0,0,0,1.5709.9664v.7124A3.8959,3.8959,0,0,1,155.6778,13.8809Z"/><path class="a" d="M155.0142,8.1533h-.8787V8.69h-3.873V13.159c0,1.4639-.05,1.9815-.3907,2.41v1.3856c.9167-.7018,1.2195-1.5708,1.2195-3.7662V9.4319h3.4443v.6923h-2.858v.615h2.858V11.5h-3.3173v.5949h3.3173v.7515h-2.858v.6245h2.858v2.2737a.3679.3679,0,0,1-.3895.42h-.4679a2.3011,2.3011,0,0,0,.35-.2445V15.16a5.2891,5.2891,0,0,1-2.7321,1.0828v.6934a6.3819,6.3819,0,0,0,2.3034-.7219v.7219h.7219a.936.936,0,0,0,1.0532-1.0151v-2.45h2.8209v-1.376h.4678V11.5h-.4678V10.1242h-2.8209V9.4319h3.2887V8.69h-3.65V8.1533Zm.3609,3.366v-.78h2.04v.78Zm0,1.3274v-.7611h2.04v.7611Zm3.2887.8691L156.7321,14.75a4.017,4.017,0,0,1-.3515-.869h-.7027a3.8956,3.8956,0,0,0,2.9859,3.0549v-.7124a3.1942,3.1942,0,0,1-1.5708-.9664l1.5708-.8585v-.6827Zm-7.0454.01v.615l2.41.5853v-.634l-2.41-.5663Z"/><path class="a" d="M162.7889,9.1684l.2445,1.0733h-.8394L161.96,9.1684h-.8976a2.57,2.57,0,0,1-.5367.79h-.9273a4.4944,4.4944,0,0,0,.9665-1.8047h.8383c-.0286.127-.0582.2339-.0878.3419h2.6452v.6732Zm4.87,3.21V11.2272h-7.27v.7515h7.2593v2.0292h-6.43v.7029h6.5871v2.1075h-7.4265V12.3789h-.7516V10.573H163.6v-.4287h.849v.4287H168.42v1.8059Zm-.8489.1947h-5.5921v.8394H166.81Zm.1651,2.732h-5.7572v.9178h5.7572ZM167.2,9.1684l.2349,1.0733h-.8394l-.2244-1.0733h-.869a2.5306,2.5306,0,0,1-.5271.79h-.9263a4.4718,4.4718,0,0,0,.9464-1.8047h.8584a2.9173,2.9173,0,0,1-.0974.3419H168.42v.6732Z"/><path class="a" d="M165.8533,8.1533h-.8584a4.4717,4.4717,0,0,1-.9463,1.8047h.9261a2.5255,2.5255,0,0,0,.5271-.79h.8692l.2243,1.0733h.8394L167.2,9.1684h1.22V8.4952H165.756a2.957,2.957,0,0,0,.0973-.3419Zm-4.45,0h-.8384a4.4931,4.4931,0,0,1-.9664,1.8047h.9273a2.57,2.57,0,0,0,.5367-.79h.8976l.2339,1.0733h.8394l-.2445-1.0733h1.1718V8.4952h-2.6453c.03-.108.0594-.2149.0879-.3419Zm3.0453,1.991H163.6v.4287h-3.9726v1.8059h.7516v4.4394h7.4265V14.7108H161.218v-.7029h6.4306V11.9787h-7.2593v-.7515h7.27v1.1517h.761V10.573h-3.9716v-.4287ZM161.218,13.413v-.8394H166.81v.8394Zm0,2.81v-.9177h5.7573v.9177Z"/><path class="a" d="M170.6124,16.6722h-1.23v-.7907h1.0935V12.5641H169.5v-.7907h.976V9.1292h-1.0935v-.8h3.0062v.8h-1.1125v2.6442h.9071v.7907h-.9071v3.2687a2.42,2.42,0,0,0,1.1125-.488v.8881A3.405,3.405,0,0,1,170.6124,16.6722Zm1.98.1556v-.75h2.3817V14.8664h-2.1181v-.7505h2.1181v-1.23H172.867V8.329h5.0449v4.5569H175.814v1.23h2.0979v.7505H175.814v1.2109h2.3615v.75Zm2.46-7.8161H173.608v1.2692h1.4449Zm0,1.9223H173.608v1.2787h1.4449Zm2.1265-1.9223h-1.4438v1.2692h1.4438Zm0,1.9223h-1.4438v1.2787h1.4438Z"/><path class="a" d="M177.912,8.329h-5.0449v4.5569h2.1075v1.23h-2.1182v.7505h2.1182v1.2109h-2.3817v.75h5.5826v-.75H175.814V14.8664h2.098v-.7505h-2.098v-1.23h2.098V8.329Zm-2.1764,1.9519V9.0117h1.4438v1.2692Zm-2.1276,0V9.0117h1.4449v1.2692Zm2.1276,1.9318V10.934h1.4438v1.2787Zm-2.1276,0V10.934h1.4449v1.2787Zm-1.22-3.8837h-3.0061v.8h1.0934v2.6442H169.5v.7907h.9759v3.3174h-1.0934v.7907h1.23a3.404,3.404,0,0,0,1.7761-.4393v-.8881a2.4194,2.4194,0,0,1-1.1124.488V12.5641h.9071v-.7907h-.9071V9.1292h1.1124v-.8Z"/><rect class="a" x="40" y="63.72" width="4" height="1.3"/></svg>